{"title":"WWE.Payback.2016.05.01.HDTV.XviD-FICEK9","uid":14802663,"size":1564991177,"categoryP":"video","categoryS":"tv_shows","magnet":"?xt=urn:btih:99c09fc7ea500b0951651e009368d6252e02ae03&amp;dn=WWE.Payback.2016.05.01.HDTV.XviD-FICEK9&amp;tr=udp%3A%2F%2Ftracker.leechers-paradise.org%3A6969&amp;tr=udp%3A%2F%2Fzer0day.ch%3A1337&amp;tr=udp%3A%2F%2Fopen.demonii.com%3A1337&amp;tr=udp%3A%2F%2Ftracker.coppersurfer.tk%3A6969&amp;tr=udp%3A%2F%2Fexodus.desync.com%3A6969","seeders":0,"leechers":1,"uploader":"FICEK9","files":2,"time":1465139803,"description":"\n   General\r\n      Complete name : WWE.Payback.2016.05.01.HDTV.XviD-FICEK9.avi\r\n      Format : AVI\r\n      Format/Info : Audio Video Interleave\r\n      Format profile : OpenDML\r\n      File size : 1.46 GiB\r\n      Duration : 2h 56mn\r\n      Overall bit rate mode : Variable\r\n      Overall bit rate : 1 184 Kbps\r\n      Writing application : MEncoder sherpya-r37853+g6d7f566-5.3.1\r\n      Writing library : MPlayer\r\n   Video #0\r\n      ID : 0\r\n      Format : MPEG-4 Visual\r\n      Format profile : Advanced   \r\n      Format settings, BVOP : 2\r\n      Format settings, QPel : No\r\n      Format settings, GMC : No warppoints\r\n      Format settings, Matrix : Default (H.263)\r\n      Codec ID : XVID\r\n      Codec ID/Hint : XviD\r\n      Duration : 2h 56mn\r\n      Bit rate : 1 040 Kbps\r\n      Width : 624 pixels\r\n      Height : 352 pixels\r\n      Display aspect ratio : 16:9\r\n      Frame rate : 29.970 fps\r\n      Color space : YUV\r\n      Chroma subsampling : 4:2:0\r\n      Bit depth : 8 bits\r\n      Scan type : Progressive\r\n      Compression mode : Lossy\r\n      Bits/(Pixel*Frame) : 0.158\r\n      Stream size : 1.28 GiB (88%)\r\n      Writing library : XviD 64\r\n   Audio #1\r\n      ID : 1\r\n      Format : MPEG Audio\r\n      Format version : Version 1\r\n      Format profile : Layer 3\r\n      Mode : Joint stereo\r\n      Codec ID : 55\r\n      Codec ID/Hint : MP3\r\n      Duration : 2h 56mn\r\n      Bit rate mode : Variable\r\n      Bit rate : 128 Kbps\r\n      Channel(s) : 2 channels\r\n      Sampling rate : 48.0 KHz\r\n      Compression mode : Lossy\r\n      Stream size : 162 MiB (11%)\r\n      Alignment : Aligned on interleaves\r\n      Interleave, duration : 24 ms (0.72 video frame)\r\n      Interleave, preload duration : 510 ms","torrent":{"xt":"urn:btih:99c09fc7ea500b0951651e009368d6252e02ae03","amp;dn":"WWE.Payback.2016.05.01.HDTV.XviD-FICEK9","amp;tr":["udp%3A%2F%2Ftracker.leechers-paradise.org%3A6969","udp%3A%2F%2Fzer0day.ch%3A1337","udp%3A%2F%2Fopen.demonii.com%3A1337","udp%3A%2F%2Ftracker.coppersurfer.tk%3A6969","udp%3A%2F%2Fexodus.desync.com%3A6969"],"infoHash":"99c09fc7ea500b0951651e009368d6252e02ae03","infoHashBuffer":{"type":"Buffer","data":[153,192,159,199,234,80,11,9,81,101,30,0,147,104,214,37,46,2,174,3]},"announce":[],"urlList":[]}}